<svg xmlns="http://www.w3.org/2000/svg" viewBox="-13.8 -94.0 348.5 140.5">
  <path d="M65.60-70.20L85.70-70.20L85.70 0L68.60 0L68.60-42.10L52.90 0L39.10 0L23.30-42.20L23.30 0L6.20 0L6.20-70.20L26.40-70.20L46.10-21.60L65.60-70.20ZM120.40 0.80Q112.20 0.80 105.65-2.70Q99.10-6.20 95.35-12.70Q91.60-19.20 91.60-27.90L91.60-27.90Q91.60-36.50 95.40-43.05Q99.20-49.60 105.80-53.10Q112.40-56.60 120.60-56.60L120.60-56.60Q128.80-56.60 135.40-53.10Q142-49.60 145.80-43.05Q149.60-36.50 149.60-27.90L149.60-27.90Q149.60-19.30 145.75-12.75Q141.90-6.20 135.25-2.70Q128.60 0.80 120.40 0.80L120.40 0.80ZM120.40-14Q125.30-14 128.75-17.60Q132.20-21.20 132.20-27.90L132.20-27.90Q132.20-34.60 128.85-38.20Q125.50-41.80 120.60-41.80L120.60-41.80Q115.60-41.80 112.30-38.25Q109.00-34.70 109.00-27.90L109.00-27.90Q109.00-21.20 112.25-17.60Q115.50-14 120.40-14L120.40-14ZM180.70-14.50L186.80-14.50L186.80 0L178.10 0Q168.80 0 163.60-4.55Q158.40-9.10 158.40-19.40L158.40-19.40L158.40-41.60L151.60-41.60L151.60-55.80L158.40-55.80L158.40-69.40L175.50-69.40L175.50-55.80L186.70-55.80L186.70-41.60L175.50-41.60L175.50-19.20Q175.50-16.70 176.70-15.60Q177.90-14.50 180.70-14.50L180.70-14.50ZM227.60-56.40Q237.20-56.40 243-50.05Q248.80-43.70 248.80-32.60L248.80-32.60L248.80 0L231.80 0L231.80-30.30Q231.80-35.90 228.90-39Q226-42.10 221.10-42.10L221.10-42.10Q216.20-42.10 213.30-39Q210.40-35.90 210.40-30.30L210.40-30.30L210.40 0L193.30 0L193.30-74L210.40-74L210.40-48.30Q213-52 217.50-54.20Q222-56.40 227.60-56.40L227.60-56.40ZM296.20-55.80L314.70-55.80L279.70 26.50L261.30 26.50L274.10-1.90L251.40-55.80L270.50-55.80L283.40-20.90L296.20-55.80Z" fill="#1F342A"></path>
</svg>